<?xml version="1.0" standalone="no"?>
<!DOCTYPE svg PUBLIC "-//W3C//DTD SVG 20010904//EN"
 "http://www.w3.org/TR/2001/REC-SVG-20010904/DTD/svg10.dtd">
<svg version="1.0" xmlns="http://www.w3.org/2000/svg"
 width="1111.000000pt" height="268.000000pt" viewBox="0 0 1111.000000 268.000000"
 preserveAspectRatio="xMidYMid meet">
<metadata>
Created by potrace 1.16, written by Peter Selinger 2001-2019
</metadata>
<g transform="translate(0.000000,268.000000) scale(0.100000,-0.100000)"
fill="#0798a8" stroke="none">
<path d="M4805 2639 c-336 -30 -608 -102 -870 -229 -319 -154 -522 -359 -591
-596 -9 -32 -24 -64 -32 -70 -23 -17 4 -74 35 -74 14 0 23 6 23 15 0 11 11 15
36 15 34 0 35 -1 20 -22 -26 -37 -19 -68 22 -107 140 -133 643 -134 783 -2 40
39 48 66 29 102 -10 18 -7 19 38 19 47 0 50 -2 55 -29 8 -38 39 -68 102 -97
96 -45 177 -58 360 -58 191 0 267 13 372 64 50 25 65 38 80 70 l18 39 101 1
102 0 12 -29 c16 -39 46 -66 105 -93 73 -33 227 -33 303 1 48 22 112 79 112
101 0 6 44 10 105 10 l105 0 -7 -27 c-15 -52 -8 -138 13 -174 26 -44 78 -79
119 -79 45 0 96 37 123 90 19 36 23 56 19 100 -3 30 -8 63 -12 73 -7 16 5 17
159 17 108 0 166 4 166 10 0 6 -6 21 -14 33 -7 12 -19 49 -25 82 -27 131 -127
284 -264 403 -253 220 -616 365 -1077 427 -139 19 -487 27 -625 14z"/>
<path d="M9179 1617 c-95 -22 -166 -81 -205 -173 -12 -27 -18 -68 -18 -135 -1
-87 2 -100 29 -154 34 -67 93 -118 158 -136 104 -30 298 -3 311 43 10 38 7
258 -4 279 -10 17 -22 19 -120 19 -101 0 -109 -1 -115 -21 -4 -11 -4 -31 -1
-45 6 -22 11 -24 66 -24 l60 0 0 -79 c0 -89 -2 -91 -88 -91 -82 0 -146 47
-172 126 -20 61 -8 176 23 224 54 81 172 104 289 56 47 -19 58 -21 62 -9 10
25 6 58 -8 79 -28 40 -172 62 -267 41z"/>
<path d="M10720 1621 c-55 -11 -100 -42 -121 -83 -26 -50 -25 -123 2 -168 27
-44 39 -53 119 -91 86 -42 110 -64 110 -105 0 -70 -102 -97 -199 -54 -24 11
-47 20 -52 20 -5 0 -9 -20 -9 -45 0 -54 19 -70 104 -86 69 -12 148 1 198 34
40 27 78 98 78 147 0 20 -10 56 -22 80 -20 39 -35 51 -113 92 -123 65 -150
103 -105 148 26 26 100 26 158 0 l42 -19 0 50 c0 47 -2 51 -32 64 -44 18 -115
25 -158 16z"/>
<path d="M7280 1601 c-16 -31 -13 -552 3 -576 13 -16 26 -18 143 -13 105 5
138 10 177 28 62 29 89 69 95 138 6 70 -17 116 -70 143 l-39 20 30 25 c41 34
56 87 42 142 -22 81 -99 112 -283 112 -76 0 -89 -2 -98 -19z m235 -77 c26 -11
44 -62 34 -98 -13 -44 -35 -56 -106 -56 l-63 0 0 80 0 80 59 0 c33 0 67 -3 76
-6z m42 -268 c22 -19 28 -32 28 -66 0 -34 -6 -47 -28 -66 -24 -21 -38 -24
-103 -24 l-74 0 0 90 0 90 74 0 c65 0 79 -3 103 -24z"/>
<path d="M7828 1613 c-16 -4 -18 -22 -18 -198 0 -277 17 -334 114 -384 40 -21
62 -25 130 -24 108 0 172 31 213 100 l28 48 3 227 3 226 -29 7 c-16 3 -41 3
-56 -1 l-26 -6 0 -205 c0 -228 -7 -261 -63 -290 -47 -24 -131 -13 -165 21
l-27 26 -3 218 c-2 188 -5 219 -19 230 -17 12 -51 14 -85 5z"/>
<path d="M8451 1602 c-7 -14 -11 -115 -11 -301 l0 -280 36 -7 c20 -4 46 -2 60
5 23 10 24 14 24 126 l0 115 40 0 c56 0 78 -25 125 -142 39 -100 47 -108 105
-108 56 0 57 11 15 116 -24 58 -53 112 -73 133 -18 19 -29 37 -22 39 22 8 71
55 85 83 20 38 19 106 -3 149 -10 21 -34 44 -61 59 -37 20 -60 24 -176 29
-127 5 -133 4 -144 -16z m253 -93 c36 -29 37 -99 1 -134 -20 -21 -34 -25 -85
-25 l-60 0 0 90 0 90 59 0 c44 0 65 -5 85 -21z"/>
<path d="M9600 1601 c-16 -30 -14 -552 3 -574 11 -16 30 -17 172 -15 l160 3 0
45 0 45 -112 3 -113 3 0 84 0 85 95 0 c92 0 95 1 101 24 3 14 3 34 -1 45 -6
19 -14 21 -101 21 l-94 0 0 75 0 74 113 3 112 3 0 45 0 45 -162 3 c-152 2
-163 1 -173 -17z"/>
<path d="M10071 1602 c-7 -14 -11 -115 -11 -301 l0 -280 36 -7 c20 -4 46 -2
60 5 23 10 24 14 24 126 l0 115 40 0 c56 0 78 -25 125 -142 39 -100 47 -108
105 -108 56 0 57 11 15 116 -24 58 -53 112 -73 133 -18 19 -29 37 -22 39 22 8
71 55 85 83 20 38 19 106 -3 149 -10 21 -34 44 -61 59 -37 20 -60 24 -176 29
-127 5 -133 4 -144 -16z m253 -93 c36 -29 37 -99 1 -134 -20 -21 -34 -25 -85
-25 l-60 0 0 90 0 90 59 0 c44 0 65 -5 85 -21z"/>
<path d="M2346 1513 c-15 -4 -17 -11 -12 -41 3 -21 6 -72 6 -114 0 -68 2 -77
20 -83 11 -3 29 -4 39 0 16 5 20 20 26 117 9 130 1 141 -79 121z"/>
<path d="M208 1466 c-133 -36 -199 -138 -200 -307 -1 -145 44 -234 139 -280
64 -31 178 -32 246 -1 l47 21 0 50 0 50 -46 -24 c-33 -18 -63 -25 -101 -25
-110 0 -155 53 -161 192 -5 106 12 162 64 208 30 26 42 30 92 30 42 0 68 -7
99 -24 23 -13 44 -21 47 -18 3 3 6 22 6 43 0 47 -30 73 -101 88 -61 13 -71 13
-131 -3z"/>
<path d="M2680 1471 c-55 -11 -100 -42 -121 -83 -26 -50 -25 -123 2 -168 27
-44 39 -53 119 -91 86 -42 110 -64 110 -105 0 -70 -102 -97 -199 -54 -24 11
-47 20 -52 20 -5 0 -9 -20 -9 -45 0 -54 19 -70 104 -86 69 -12 148 1 198 34
40 27 78 98 78 147 0 20 -10 56 -22 80 -20 39 -35 51 -113 92 -123 65 -150
103 -105 148 26 26 100 26 158 0 l42 -19 0 50 c0 47 -2 51 -32 64 -44 18 -115
25 -158 16z"/>
<path d="M558 1459 c-17 -9 -18 -34 -18 -295 l0 -284 24 -11 c14 -7 40 -9 60
-5 l36 7 0 124 0 125 120 0 120 0 0 -124 0 -124 29 -7 c16 -3 40 -3 55 1 l26
6 0 293 0 293 -29 7 c-16 3 -40 3 -55 -1 l-26 -6 0 -114 0 -114 -120 0 -120 0
0 114 c0 109 -1 114 -22 120 -33 8 -60 7 -80 -5z"/>
<path d="M1309 1458 c-14 -11 -209 -551 -209 -578 0 -14 39 -22 75 -16 31 6
34 11 50 71 l18 65 123 0 122 0 22 -64 c22 -67 32 -76 83 -76 64 0 64 -3 -44
306 -56 159 -103 291 -105 293 -12 12 -120 12 -135 -1z m106 -228 c21 -63 40
-121 43 -127 3 -10 -19 -13 -91 -13 l-96 0 46 136 c25 75 49 132 53 127 4 -4
24 -60 45 -123z"/>
<path d="M1747 1456 c-15 -16 -17 -46 -17 -291 0 -245 2 -275 17 -291 15 -15
33 -16 143 -11 69 3 141 11 160 18 68 24 117 66 147 126 25 53 28 68 28 163 0
95 -3 110 -28 158 -30 57 -87 105 -146 123 -20 5 -92 13 -161 16 -110 5 -128
4 -143 -11z m290 -112 c47 -34 73 -98 73 -179 0 -54 -5 -81 -22 -115 -35 -67
-65 -84 -159 -89 l-79 -3 0 207 0 207 79 -3 c61 -3 86 -9 108 -25z"/>
<path d="M3850 1284 c-159 -32 -261 -106 -275 -199 -4 -22 -2 -52 4 -66 l10
-27 -83 -3 c-93 -4 -134 -24 -177 -87 -24 -35 -24 -36 -27 -350 -3 -301 -2
-316 18 -357 12 -25 38 -55 62 -71 l41 -29 1646 0 1646 0 36 24 c20 14 47 41
60 60 24 34 24 37 27 335 2 166 0 316 -3 334 -7 36 -65 107 -96 117 -12 4 -19
15 -19 30 0 14 -14 40 -32 60 -157 179 -754 156 -837 -33 -9 -19 -22 -32 -33
-32 -17 0 -17 1 2 20 30 30 25 63 -15 99 -39 34 -97 54 -230 78 -127 24 -484
24 -613 0 -215 -40 -311 -110 -240 -177 l22 -20 -221 0 -221 0 10 34 c30 96
-51 195 -198 241 -50 16 -218 28 -264 19z"/>
</g>
</svg>
